<?xml version="1.0" encoding="UTF-8" standalone="no"?>
<!DOCTYPE svg PUBLIC "-//W3C//DTD SVG 1.1//EN"
 "http://www.w3.org/Graphics/SVG/1.1/DTD/svg11.dtd">
<!-- Generated by graphviz version 2.43.0 (0)
 -->
<!-- Title: %3 Pages: 1 -->
<svg width="333pt" height="335pt"
 viewBox="0.00 0.00 333.00 335.00" xmlns="http://www.w3.org/2000/svg" xmlns:xlink="http://www.w3.org/1999/xlink">
<g id="graph0" class="graph" transform="scale(1 1) rotate(0) translate(4 331)">
<title>%3</title>
<polygon fill="white" stroke="transparent" points="-4,4 -4,-331 329,-331 329,4 -4,4"/>
<!-- 140640378938432 -->
<g id="node1" class="node">
<title>140640378938432</title>
<polygon fill="#caff70" stroke="black" points="244.5,-30 190.5,-30 190.5,0 244.5,0 244.5,-30"/>
<text text-anchor="middle" x="217.5" y="-18" font-family="monospace" font-size="10.00">f</text>
<text text-anchor="middle" x="217.5" y="-7" font-family="monospace" font-size="10.00"> ()</text>
</g>
<!-- 140639817429536 -->
<g id="node2" class="node">
<title>140639817429536</title>
<polygon fill="lightgrey" stroke="black" points="262,-85 173,-85 173,-66 262,-66 262,-85"/>
<text text-anchor="middle" x="217.5" y="-73" font-family="monospace" font-size="10.00">SumBackward0</text>
</g>
<!-- 140639817429536&#45;&gt;140640378938432 -->
<g id="edge9" class="edge">
<title>140639817429536&#45;&gt;140640378938432</title>
<path fill="none" stroke="black" d="M217.5,-65.87C217.5,-59.11 217.5,-49.35 217.5,-40.26"/>
<polygon fill="black" stroke="black" points="221,-40.11 217.5,-30.11 214,-40.11 221,-40.11"/>
</g>
<!-- 140639807807616 -->
<g id="node3" class="node">
<title>140639807807616</title>
<polygon fill="lightgrey" stroke="black" points="262,-140 173,-140 173,-121 262,-121 262,-140"/>
<text text-anchor="middle" x="217.5" y="-128" font-family="monospace" font-size="10.00">AddBackward0</text>
</g>
<!-- 140639807807616&#45;&gt;140639817429536 -->
<g id="edge1" class="edge">
<title>140639807807616&#45;&gt;140639817429536</title>
<path fill="none" stroke="black" d="M217.5,-120.75C217.5,-113.8 217.5,-103.85 217.5,-95.13"/>
<polygon fill="black" stroke="black" points="221,-95.09 217.5,-85.09 214,-95.09 221,-95.09"/>
</g>
<!-- 140639807807472 -->
<g id="node4" class="node">
<title>140639807807472</title>
<polygon fill="lightgrey" stroke="black" points="206,-195 117,-195 117,-176 206,-176 206,-195"/>
<text text-anchor="middle" x="161.5" y="-183" font-family="monospace" font-size="10.00">MulBackward0</text>
</g>
<!-- 140639807807472&#45;&gt;140639807807616 -->
<g id="edge2" class="edge">
<title>140639807807472&#45;&gt;140639807807616</title>
<path fill="none" stroke="black" d="M170.5,-175.98C178.69,-168.23 191.01,-156.58 200.97,-147.14"/>
<polygon fill="black" stroke="black" points="203.48,-149.59 208.34,-140.17 198.67,-144.5 203.48,-149.59"/>
</g>
<!-- 140639807807712 -->
<g id="node5" class="node">
<title>140639807807712</title>
<polygon fill="lightgrey" stroke="black" points="101,-255.5 0,-255.5 0,-236.5 101,-236.5 101,-255.5"/>
<text text-anchor="middle" x="50.5" y="-243.5" font-family="monospace" font-size="10.00">AccumulateGrad</text>
</g>
<!-- 140639807807712&#45;&gt;140639807807472 -->
<g id="edge3" class="edge">
<title>140639807807712&#45;&gt;140639807807472</title>
<path fill="none" stroke="black" d="M66.88,-236.37C85.08,-226.78 114.7,-211.17 135.95,-199.97"/>
<polygon fill="black" stroke="black" points="137.84,-202.93 145.05,-195.17 134.58,-196.73 137.84,-202.93"/>
</g>
<!-- 140640598494816 -->
<g id="node6" class="node">
<title>140640598494816</title>
<polygon fill="lightblue" stroke="black" points="80,-327 21,-327 21,-297 80,-297 80,-327"/>
<text text-anchor="middle" x="50.5" y="-315" font-family="monospace" font-size="10.00">a</text>
<text text-anchor="middle" x="50.5" y="-304" font-family="monospace" font-size="10.00"> (2, 3)</text>
</g>
<!-- 140640598494816&#45;&gt;140639807807712 -->
<g id="edge4" class="edge">
<title>140640598494816&#45;&gt;140639807807712</title>
<path fill="none" stroke="black" d="M50.5,-296.8C50.5,-287.7 50.5,-275.79 50.5,-265.9"/>
<polygon fill="black" stroke="black" points="54,-265.84 50.5,-255.84 47,-265.84 54,-265.84"/>
</g>
<!-- 140639807807808 -->
<g id="node7" class="node">
<title>140639807807808</title>
<polygon fill="lightgrey" stroke="black" points="220,-255.5 119,-255.5 119,-236.5 220,-236.5 220,-255.5"/>
<text text-anchor="middle" x="169.5" y="-243.5" font-family="monospace" font-size="10.00">AccumulateGrad</text>
</g>
<!-- 140639807807808&#45;&gt;140639807807472 -->
<g id="edge5" class="edge">
<title>140639807807808&#45;&gt;140639807807472</title>
<path fill="none" stroke="black" d="M168.32,-236.37C167.21,-228.25 165.51,-215.81 164.08,-205.39"/>
<polygon fill="black" stroke="black" points="167.51,-204.6 162.69,-195.17 160.57,-205.55 167.51,-204.6"/>
</g>
<!-- 140640378938672 -->
<g id="node8" class="node">
<title>140640378938672</title>
<polygon fill="lightblue" stroke="black" points="199,-327 140,-327 140,-297 199,-297 199,-327"/>
<text text-anchor="middle" x="169.5" y="-315" font-family="monospace" font-size="10.00">b</text>
<text text-anchor="middle" x="169.5" y="-304" font-family="monospace" font-size="10.00"> (2, 3)</text>
</g>
<!-- 140640378938672&#45;&gt;140639807807808 -->
<g id="edge6" class="edge">
<title>140640378938672&#45;&gt;140639807807808</title>
<path fill="none" stroke="black" d="M169.5,-296.8C169.5,-287.7 169.5,-275.79 169.5,-265.9"/>
<polygon fill="black" stroke="black" points="173,-265.84 169.5,-255.84 166,-265.84 173,-265.84"/>
</g>
<!-- 140639807807376 -->
<g id="node9" class="node">
<title>140639807807376</title>
<polygon fill="lightgrey" stroke="black" points="325,-195 224,-195 224,-176 325,-176 325,-195"/>
<text text-anchor="middle" x="274.5" y="-183" font-family="monospace" font-size="10.00">AccumulateGrad</text>
</g>
<!-- 140639807807376&#45;&gt;140639807807616 -->
<g id="edge7" class="edge">
<title>140639807807376&#45;&gt;140639807807616</title>
<path fill="none" stroke="black" d="M265.34,-175.98C257,-168.23 244.47,-156.58 234.32,-147.14"/>
<polygon fill="black" stroke="black" points="236.53,-144.42 226.82,-140.17 231.76,-149.54 236.53,-144.42"/>
</g>
<!-- 140640378929712 -->
<g id="node10" class="node">
<title>140640378929712</title>
<polygon fill="lightblue" stroke="black" points="304,-261 245,-261 245,-231 304,-231 304,-261"/>
<text text-anchor="middle" x="274.5" y="-249" font-family="monospace" font-size="10.00">c</text>
<text text-anchor="middle" x="274.5" y="-238" font-family="monospace" font-size="10.00"> (2, 3)</text>
</g>
<!-- 140640378929712&#45;&gt;140639807807376 -->
<g id="edge8" class="edge">
<title>140640378929712&#45;&gt;140639807807376</title>
<path fill="none" stroke="black" d="M274.5,-230.84C274.5,-223.21 274.5,-213.7 274.5,-205.45"/>
<polygon fill="black" stroke="black" points="278,-205.27 274.5,-195.27 271,-205.27 278,-205.27"/>
</g>
</g>
</svg>
