<?xml version="1.0" encoding="UTF-8" standalone="no"?>
<!DOCTYPE svg PUBLIC "-//W3C//DTD SVG 1.1//EN"
 "http://www.w3.org/Graphics/SVG/1.1/DTD/svg11.dtd">
<!-- Generated by graphviz version 2.42.4 (0)
 -->
<!-- Pages: 1 -->
<svg width="412pt" height="551pt"
 viewBox="0.00 0.00 412.00 551.00" xmlns="http://www.w3.org/2000/svg" xmlns:xlink="http://www.w3.org/1999/xlink">
<g id="graph0" class="graph" transform="scale(1 1) rotate(0) translate(4 547)">
<polygon fill="white" stroke="transparent" points="-4,4 -4,-547 408,-547 408,4 -4,4"/>
<!-- 124187677766064 -->
<g id="node1" class="node">
<title>124187677766064</title>
<polygon fill="#caff70" stroke="black" points="243,-31 178,-31 178,0 243,0 243,-31"/>
<text text-anchor="middle" x="210.5" y="-7" font-family="monospace" font-size="10.00"> (1, 10)</text>
</g>
<!-- 124187680089776 -->
<g id="node2" class="node">
<title>124187680089776</title>
<polygon fill="lightgrey" stroke="black" points="261,-86 160,-86 160,-67 261,-67 261,-86"/>
<text text-anchor="middle" x="210.5" y="-74" font-family="monospace" font-size="10.00">AddmmBackward0</text>
</g>
<!-- 124187680089776&#45;&gt;124187677766064 -->
<g id="edge20" class="edge">
<title>124187680089776&#45;&gt;124187677766064</title>
<path fill="none" stroke="black" d="M210.5,-66.79C210.5,-60.07 210.5,-50.4 210.5,-41.34"/>
<polygon fill="black" stroke="black" points="214,-41.19 210.5,-31.19 207,-41.19 214,-41.19"/>
</g>
<!-- 124187680089488 -->
<g id="node3" class="node">
<title>124187680089488</title>
<polygon fill="lightgrey" stroke="black" points="145,-141 44,-141 44,-122 145,-122 145,-141"/>
<text text-anchor="middle" x="94.5" y="-129" font-family="monospace" font-size="10.00">AccumulateGrad</text>
</g>
<!-- 124187680089488&#45;&gt;124187680089776 -->
<g id="edge1" class="edge">
<title>124187680089488&#45;&gt;124187680089776</title>
<path fill="none" stroke="black" d="M113.14,-121.98C131.8,-113.46 160.75,-100.23 182.24,-90.41"/>
<polygon fill="black" stroke="black" points="183.88,-93.51 191.52,-86.17 180.97,-87.14 183.88,-93.51"/>
</g>
<!-- 124187677589744 -->
<g id="node4" class="node">
<title>124187677589744</title>
<polygon fill="lightblue" stroke="black" points="121.5,-208 67.5,-208 67.5,-177 121.5,-177 121.5,-208"/>
<text text-anchor="middle" x="94.5" y="-184" font-family="monospace" font-size="10.00"> (10)</text>
</g>
<!-- 124187677589744&#45;&gt;124187680089488 -->
<g id="edge2" class="edge">
<title>124187677589744&#45;&gt;124187680089488</title>
<path fill="none" stroke="black" d="M94.5,-176.92C94.5,-169.22 94.5,-159.69 94.5,-151.43"/>
<polygon fill="black" stroke="black" points="98,-151.25 94.5,-141.25 91,-151.25 98,-151.25"/>
</g>
<!-- 124187680090880 -->
<g id="node5" class="node">
<title>124187680090880</title>
<polygon fill="lightgrey" stroke="black" points="258,-141 163,-141 163,-122 258,-122 258,-141"/>
<text text-anchor="middle" x="210.5" y="-129" font-family="monospace" font-size="10.00">ReluBackward0</text>
</g>
<!-- 124187680090880&#45;&gt;124187680089776 -->
<g id="edge3" class="edge">
<title>124187680090880&#45;&gt;124187680089776</title>
<path fill="none" stroke="black" d="M210.5,-121.75C210.5,-114.8 210.5,-104.85 210.5,-96.13"/>
<polygon fill="black" stroke="black" points="214,-96.09 210.5,-86.09 207,-96.09 214,-96.09"/>
</g>
<!-- 124187680090640 -->
<g id="node6" class="node">
<title>124187680090640</title>
<polygon fill="lightgrey" stroke="black" points="256,-202 155,-202 155,-183 256,-183 256,-202"/>
<text text-anchor="middle" x="205.5" y="-190" font-family="monospace" font-size="10.00">AddmmBackward0</text>
</g>
<!-- 124187680090640&#45;&gt;124187680090880 -->
<g id="edge4" class="edge">
<title>124187680090640&#45;&gt;124187680090880</title>
<path fill="none" stroke="black" d="M206.24,-182.79C206.94,-174.52 208.02,-161.79 208.91,-151.21"/>
<polygon fill="black" stroke="black" points="212.4,-151.5 209.76,-141.24 205.43,-150.91 212.4,-151.5"/>
</g>
<!-- 124187680083536 -->
<g id="node7" class="node">
<title>124187680083536</title>
<polygon fill="lightgrey" stroke="black" points="101,-269 0,-269 0,-250 101,-250 101,-269"/>
<text text-anchor="middle" x="50.5" y="-257" font-family="monospace" font-size="10.00">AccumulateGrad</text>
</g>
<!-- 124187680083536&#45;&gt;124187680090640 -->
<g id="edge5" class="edge">
<title>124187680083536&#45;&gt;124187680090640</title>
<path fill="none" stroke="black" d="M71.08,-249.87C97.83,-238.65 144.75,-218.98 175.47,-206.09"/>
<polygon fill="black" stroke="black" points="176.96,-209.26 184.83,-202.17 174.26,-202.81 176.96,-209.26"/>
</g>
<!-- 124187680204160 -->
<g id="node8" class="node">
<title>124187680204160</title>
<polygon fill="lightblue" stroke="black" points="77.5,-342 23.5,-342 23.5,-311 77.5,-311 77.5,-342"/>
<text text-anchor="middle" x="50.5" y="-318" font-family="monospace" font-size="10.00"> (512)</text>
</g>
<!-- 124187680204160&#45;&gt;124187680083536 -->
<g id="edge6" class="edge">
<title>124187680204160&#45;&gt;124187680083536</title>
<path fill="none" stroke="black" d="M50.5,-310.75C50.5,-301.39 50.5,-289.19 50.5,-279.16"/>
<polygon fill="black" stroke="black" points="54,-279.02 50.5,-269.02 47,-279.02 54,-279.02"/>
</g>
<!-- 124187680089296 -->
<g id="node9" class="node">
<title>124187680089296</title>
<polygon fill="lightgrey" stroke="black" points="214,-269 119,-269 119,-250 214,-250 214,-269"/>
<text text-anchor="middle" x="166.5" y="-257" font-family="monospace" font-size="10.00">ReluBackward0</text>
</g>
<!-- 124187680089296&#45;&gt;124187680090640 -->
<g id="edge7" class="edge">
<title>124187680089296&#45;&gt;124187680090640</title>
<path fill="none" stroke="black" d="M171.76,-249.73C177.72,-239.79 187.6,-223.34 195.13,-210.79"/>
<polygon fill="black" stroke="black" points="198.18,-212.5 200.32,-202.13 192.18,-208.9 198.18,-212.5"/>
</g>
<!-- 124187680090208 -->
<g id="node10" class="node">
<title>124187680090208</title>
<polygon fill="lightgrey" stroke="black" points="209,-336 108,-336 108,-317 209,-317 209,-336"/>
<text text-anchor="middle" x="158.5" y="-324" font-family="monospace" font-size="10.00">AddmmBackward0</text>
</g>
<!-- 124187680090208&#45;&gt;124187680089296 -->
<g id="edge8" class="edge">
<title>124187680090208&#45;&gt;124187680089296</title>
<path fill="none" stroke="black" d="M159.58,-316.73C160.75,-307.18 162.67,-291.62 164.19,-279.28"/>
<polygon fill="black" stroke="black" points="167.69,-279.48 165.44,-269.13 160.74,-278.62 167.69,-279.48"/>
</g>
<!-- 124187680090976 -->
<g id="node11" class="node">
<title>124187680090976</title>
<polygon fill="lightgrey" stroke="black" points="113,-403 12,-403 12,-384 113,-384 113,-403"/>
<text text-anchor="middle" x="62.5" y="-391" font-family="monospace" font-size="10.00">AccumulateGrad</text>
</g>
<!-- 124187680090976&#45;&gt;124187680090208 -->
<g id="edge9" class="edge">
<title>124187680090976&#45;&gt;124187680090208</title>
<path fill="none" stroke="black" d="M75.45,-383.73C91.35,-372.96 118.55,-354.55 137.47,-341.74"/>
<polygon fill="black" stroke="black" points="139.44,-344.63 145.76,-336.13 135.52,-338.84 139.44,-344.63"/>
</g>
<!-- 124187677767584 -->
<g id="node12" class="node">
<title>124187677767584</title>
<polygon fill="lightblue" stroke="black" points="89.5,-476 35.5,-476 35.5,-445 89.5,-445 89.5,-476"/>
<text text-anchor="middle" x="62.5" y="-452" font-family="monospace" font-size="10.00"> (512)</text>
</g>
<!-- 124187677767584&#45;&gt;124187680090976 -->
<g id="edge10" class="edge">
<title>124187677767584&#45;&gt;124187680090976</title>
<path fill="none" stroke="black" d="M62.5,-444.75C62.5,-435.39 62.5,-423.19 62.5,-413.16"/>
<polygon fill="black" stroke="black" points="66,-413.02 62.5,-403.02 59,-413.02 66,-413.02"/>
</g>
<!-- 124187680091024 -->
<g id="node13" class="node">
<title>124187680091024</title>
<polygon fill="lightgrey" stroke="black" points="208,-403 131,-403 131,-384 208,-384 208,-403"/>
<text text-anchor="middle" x="169.5" y="-391" font-family="monospace" font-size="10.00">TBackward0</text>
</g>
<!-- 124187680091024&#45;&gt;124187680090208 -->
<g id="edge11" class="edge">
<title>124187680091024&#45;&gt;124187680090208</title>
<path fill="none" stroke="black" d="M168.02,-383.73C166.4,-374.18 163.77,-358.62 161.68,-346.28"/>
<polygon fill="black" stroke="black" points="165.08,-345.4 159.96,-336.13 158.18,-346.57 165.08,-345.4"/>
</g>
<!-- 124187680091168 -->
<g id="node14" class="node">
<title>124187680091168</title>
<polygon fill="lightgrey" stroke="black" points="220,-470 119,-470 119,-451 220,-451 220,-470"/>
<text text-anchor="middle" x="169.5" y="-458" font-family="monospace" font-size="10.00">AccumulateGrad</text>
</g>
<!-- 124187680091168&#45;&gt;124187680091024 -->
<g id="edge12" class="edge">
<title>124187680091168&#45;&gt;124187680091024</title>
<path fill="none" stroke="black" d="M169.5,-450.73C169.5,-441.18 169.5,-425.62 169.5,-413.28"/>
<polygon fill="black" stroke="black" points="173,-413.13 169.5,-403.13 166,-413.13 173,-413.13"/>
</g>
<!-- 124187680204720 -->
<g id="node15" class="node">
<title>124187680204720</title>
<polygon fill="lightblue" stroke="black" points="211,-543 128,-543 128,-512 211,-512 211,-543"/>
<text text-anchor="middle" x="169.5" y="-519" font-family="monospace" font-size="10.00"> (512, 784)</text>
</g>
<!-- 124187680204720&#45;&gt;124187680091168 -->
<g id="edge13" class="edge">
<title>124187680204720&#45;&gt;124187680091168</title>
<path fill="none" stroke="black" d="M169.5,-511.75C169.5,-502.39 169.5,-490.19 169.5,-480.16"/>
<polygon fill="black" stroke="black" points="173,-480.02 169.5,-470.02 166,-480.02 173,-480.02"/>
</g>
<!-- 124187680090592 -->
<g id="node16" class="node">
<title>124187680090592</title>
<polygon fill="lightgrey" stroke="black" points="309,-269 232,-269 232,-250 309,-250 309,-269"/>
<text text-anchor="middle" x="270.5" y="-257" font-family="monospace" font-size="10.00">TBackward0</text>
</g>
<!-- 124187680090592&#45;&gt;124187680090640 -->
<g id="edge14" class="edge">
<title>124187680090592&#45;&gt;124187680090640</title>
<path fill="none" stroke="black" d="M261.73,-249.73C251.4,-239.4 234.04,-222.04 221.33,-209.33"/>
<polygon fill="black" stroke="black" points="223.67,-206.72 214.13,-202.13 218.72,-211.67 223.67,-206.72"/>
</g>
<!-- 124187680090928 -->
<g id="node17" class="node">
<title>124187680090928</title>
<polygon fill="lightgrey" stroke="black" points="328,-336 227,-336 227,-317 328,-317 328,-336"/>
<text text-anchor="middle" x="277.5" y="-324" font-family="monospace" font-size="10.00">AccumulateGrad</text>
</g>
<!-- 124187680090928&#45;&gt;124187680090592 -->
<g id="edge15" class="edge">
<title>124187680090928&#45;&gt;124187680090592</title>
<path fill="none" stroke="black" d="M276.56,-316.73C275.53,-307.18 273.85,-291.62 272.52,-279.28"/>
<polygon fill="black" stroke="black" points="275.98,-278.7 271.43,-269.13 269.02,-279.44 275.98,-278.7"/>
</g>
<!-- 124187677760384 -->
<g id="node18" class="node">
<title>124187677760384</title>
<polygon fill="lightblue" stroke="black" points="319,-409 236,-409 236,-378 319,-378 319,-409"/>
<text text-anchor="middle" x="277.5" y="-385" font-family="monospace" font-size="10.00"> (512, 512)</text>
</g>
<!-- 124187677760384&#45;&gt;124187680090928 -->
<g id="edge16" class="edge">
<title>124187677760384&#45;&gt;124187680090928</title>
<path fill="none" stroke="black" d="M277.5,-377.75C277.5,-368.39 277.5,-356.19 277.5,-346.16"/>
<polygon fill="black" stroke="black" points="281,-346.02 277.5,-336.02 274,-346.02 281,-346.02"/>
</g>
<!-- 124187680089824 -->
<g id="node19" class="node">
<title>124187680089824</title>
<polygon fill="lightgrey" stroke="black" points="361,-141 284,-141 284,-122 361,-122 361,-141"/>
<text text-anchor="middle" x="322.5" y="-129" font-family="monospace" font-size="10.00">TBackward0</text>
</g>
<!-- 124187680089824&#45;&gt;124187680089776 -->
<g id="edge17" class="edge">
<title>124187680089824&#45;&gt;124187680089776</title>
<path fill="none" stroke="black" d="M304.51,-121.98C286.57,-113.5 258.78,-100.35 238.07,-90.54"/>
<polygon fill="black" stroke="black" points="239.36,-87.28 228.82,-86.17 236.36,-93.61 239.36,-87.28"/>
</g>
<!-- 124187680091792 -->
<g id="node20" class="node">
<title>124187680091792</title>
<polygon fill="lightgrey" stroke="black" points="377,-202 276,-202 276,-183 377,-183 377,-202"/>
<text text-anchor="middle" x="326.5" y="-190" font-family="monospace" font-size="10.00">AccumulateGrad</text>
</g>
<!-- 124187680091792&#45;&gt;124187680089824 -->
<g id="edge18" class="edge">
<title>124187680091792&#45;&gt;124187680089824</title>
<path fill="none" stroke="black" d="M325.91,-182.79C325.35,-174.6 324.5,-162.06 323.79,-151.55"/>
<polygon fill="black" stroke="black" points="327.26,-150.98 323.09,-141.24 320.28,-151.46 327.26,-150.98"/>
</g>
<!-- 124192027459200 -->
<g id="node21" class="node">
<title>124192027459200</title>
<polygon fill="lightblue" stroke="black" points="404,-275 327,-275 327,-244 404,-244 404,-275"/>
<text text-anchor="middle" x="365.5" y="-251" font-family="monospace" font-size="10.00"> (10, 512)</text>
</g>
<!-- 124192027459200&#45;&gt;124187680091792 -->
<g id="edge19" class="edge">
<title>124192027459200&#45;&gt;124187680091792</title>
<path fill="none" stroke="black" d="M356.65,-243.75C350.79,-233.99 343.08,-221.14 336.93,-210.88"/>
<polygon fill="black" stroke="black" points="339.76,-208.79 331.61,-202.02 333.75,-212.39 339.76,-208.79"/>
</g>
</g>
</svg>
